<?xml version="1.0" encoding="UTF-8"?>
<svg id="csit-icon" xmlns="http://www.w3.org/2000/svg" version="1.1" viewBox="0 0 256 256">
  <!-- Generator: Adobe Illustrator 29.0.1, SVG Export Plug-In . SVG Version: 2.1.0 Build 192)  -->
  <defs>
    <style>
      .st0 {
        fill: #53565a;
      }

      .st1 {
        fill: #00a3e0;
      }
    </style>
  </defs>
  <path id="cfox" class="st1" d="M123.3,40.4c-37.5,2-67.3,33.1-67.3,71.1s31.9,71.3,71.3,71.3,52-16,63.7-39.4l-26.6-13.3c-7.9,15.8-25.3,25.4-43.7,22.5-22.7-3.6-38.1-24.9-34.6-47.6,3.4-21.3,22.4-36.3,43.5-35,6.2,3.7,13.5,5.9,21.3,5.9,11.6,0,22-4.7,29.5-12.3-6.5-1-12.5-3.4-17.6-7,.3-12.2,3.9-23.6,10-33.2-11,2.5-20.1,10-24.7,20.1-2.7-.8-5.4-1.5-8.2-2,1.4-8.7,4.6-16.8,9.1-24-12.1,2.7-21.8,11.5-25.8,23h0Z"/>
  <g>
    <path class="st0" d="M17.6,203.2h7.9l12.7,26.1-.6.6v-26.7h6.1v34.1h-7.9l-12.6-25.7.6-.6v26.3h-6.1v-34.1Z"/>
    <path class="st0" d="M63.7,224.2v13.1h-6.4v-13.1l-10-20.9h6.7l6.5,14.7,6.5-14.7h6.7l-10,20.9Z"/>
    <path class="st0" d="M80.8,236.2c-1.8-1-3.2-2.4-4.2-4.3s-1.5-4.2-1.5-6.9v-9.4c0-2.7.5-5,1.5-6.9s2.4-3.3,4.2-4.3,4.1-1.5,6.7-1.5,4.1.5,5.7,1.4,3.1,2.3,4.2,4,1.9,3.9,2.3,6.4h-6.7c-.2-1.1-.6-2.1-1.2-2.9s-1.2-1.4-1.9-1.8-1.6-.6-2.5-.6-2.2.2-3.1.7-1.5,1.2-1.9,2.2-.7,2.1-.7,3.4v9.4c0,1.3.2,2.5.7,3.4s1.1,1.7,1.9,2.1,1.9.7,3.1.7,1.8-.2,2.5-.6,1.4-1,1.9-1.8.9-1.8,1.1-2.9h6.7c-.4,2.5-1.2,4.6-2.3,6.4s-2.5,3.1-4.2,4-3.6,1.4-5.7,1.4-4.8-.5-6.7-1.5Z"/>
    <path class="st0" d="M109.8,236.2c-1.9-1-3.3-2.4-4.2-4.3s-1.5-4.2-1.5-6.9v-21.8h6.4v21.9c0,2,.5,3.5,1.6,4.5s2.5,1.6,4.4,1.6,3.4-.5,4.5-1.6,1.6-2.6,1.6-4.5v-21.9h6.4v21.8c0,2.7-.5,5-1.5,6.9s-2.4,3.3-4.3,4.3-4.1,1.5-6.7,1.5-4.9-.5-6.7-1.5Z"/>
    <path class="st0" d="M153.9,236.2c-1.8-1-3.2-2.4-4.2-4.3s-1.5-4.2-1.5-6.9v-9.4c0-2.7.5-5,1.5-6.9s2.4-3.3,4.2-4.3,4.1-1.5,6.7-1.5,4.1.5,5.7,1.4,3.1,2.3,4.2,4,1.9,3.9,2.3,6.4h-6.7c-.2-1.1-.6-2.1-1.2-2.9s-1.2-1.4-1.9-1.8-1.6-.6-2.5-.6-2.2.2-3.1.7-1.5,1.2-1.9,2.2-.7,2.1-.7,3.4v9.4c0,1.3.2,2.5.7,3.4s1.1,1.7,1.9,2.1,1.9.7,3.1.7,1.8-.2,2.5-.6,1.4-1,1.9-1.8.9-1.8,1.1-2.9h6.7c-.4,2.5-1.2,4.6-2.3,6.4s-2.5,3.1-4.2,4-3.6,1.4-5.7,1.4-4.8-.5-6.7-1.5Z"/>
    <path class="st0" d="M183.6,237.2c-1.6-.3-3-.8-4.4-1.4s-2.6-1.4-3.7-2.3l3-5.3c1.3,1.1,2.8,1.9,4.5,2.5s3.5.9,5.3.9,3.7-.4,4.9-1.1,1.7-1.7,1.7-3h0c0-.9-.3-1.6-.8-2.2s-1.2-.9-2-1.2-1.9-.5-3.2-.7c0,0,0,0-.1,0s0,0-.1,0h-.5c-2.3-.4-4.2-.9-5.7-1.4s-2.8-1.5-3.8-2.8-1.6-3.3-1.6-5.8h0c0-2.2.5-4.1,1.5-5.7s2.4-2.8,4.3-3.6,4.1-1.2,6.8-1.2,2.5.1,3.7.4,2.5.7,3.7,1.2,2.4,1.2,3.5,1.9l-2.7,5.4c-1.3-.9-2.7-1.6-4.1-2.1s-2.8-.8-4.1-.8c-2,0-3.5.3-4.6,1s-1.6,1.6-1.6,2.7h0c0,1,.3,1.8.8,2.4s1.3,1,2.1,1.3,2,.5,3.5.8c0,0,.1,0,.2,0s.1,0,.2,0c0,0,.2,0,.3,0s.2,0,.3,0c2.2.4,4,.9,5.4,1.5s2.7,1.6,3.6,2.9,1.5,3.2,1.5,5.5h0c0,2.2-.5,4.1-1.5,5.6s-2.5,2.7-4.4,3.5-4.3,1.2-7,1.2-3.2-.2-4.8-.5Z"/>
    <path class="st0" d="M212.9,237.3h-6.7v-34.1h6.7v34.1Z"/>
    <path class="st0" d="M217.2,203.2h25v6.2h-25v-6.2ZM226.4,206h6.4v31.3h-6.4v-31.3Z"/>
  </g>
</svg>